<?xml version="1.0" encoding="UTF-8"?>
<!DOCTYPE svg PUBLIC "-//W3C//DTD SVG 1.1//EN" "http://www.w3.org/Graphics/SVG/1.1/DTD/svg11.dtd">
<!-- Creator: CorelDRAW X8 -->
<svg xmlns="http://www.w3.org/2000/svg" xml:space="preserve" width="4.81977in" height="2.26699in" version="1.1" style="shape-rendering:geometricPrecision; text-rendering:geometricPrecision; image-rendering:optimizeQuality; fill-rule:evenodd; clip-rule:evenodd"
viewBox="0 0 3830 1801"
 xmlns:xlink="http://www.w3.org/1999/xlink">
 <defs>
  <style type="text/css">
   <![CDATA[
    .str0 {stroke:#117E57;stroke-width:10.595}
    .fil137 {fill:none}
    .fil0 {fill:#FEFEFE}
    .fil136 {fill:#000067}
    .fil135 {fill:#000167}
    .fil134 {fill:#000168}
    .fil133 {fill:#000268}
    .fil132 {fill:#000269}
    .fil131 {fill:#000369}
    .fil130 {fill:#00036A}
    .fil129 {fill:#00046A}
    .fil128 {fill:#00056B}
    .fil127 {fill:#00066B}
    .fil126 {fill:#00066C}
    .fil125 {fill:#00076C}
    .fil124 {fill:#00076D}
    .fil123 {fill:#00086D}
    .fil122 {fill:#00096E}
    .fil121 {fill:#000A6E}
    .fil120 {fill:#000A6F}
    .fil119 {fill:#000B6F}
    .fil118 {fill:#000B70}
    .fil117 {fill:#000C70}
    .fil116 {fill:#000C71}
    .fil115 {fill:#000D71}
    .fil114 {fill:#000E72}
    .fil113 {fill:#000F72}
    .fil112 {fill:#000F73}
    .fil111 {fill:#001073}
    .fil110 {fill:#001074}
    .fil109 {fill:#001174}
    .fil108 {fill:#001275}
    .fil107 {fill:#001375}
    .fil106 {fill:#001376}
    .fil105 {fill:#001476}
    .fil104 {fill:#001477}
    .fil103 {fill:#001577}
    .fil102 {fill:#001678}
    .fil101 {fill:#001779}
    .fil100 {fill:#001879}
    .fil99 {fill:#00187A}
    .fil98 {fill:#00197A}
    .fil97 {fill:#00197B}
    .fil96 {fill:#001A7B}
    .fil95 {fill:#001B7C}
    .fil94 {fill:#001C7D}
    .fil93 {fill:#001D7D}
    .fil92 {fill:#001E7E}
    .fil91 {fill:#001F7F}
    .fil90 {fill:#002080}
    .fil89 {fill:#002181}
    .fil88 {fill:#002281}
    .fil87 {fill:#002282}
    .fil86 {fill:#002382}
    .fil85 {fill:#002483}
    .fil84 {fill:#002584}
    .fil83 {fill:#002684}
    .fil82 {fill:#002685}
    .fil81 {fill:#002785}
    .fil80 {fill:#002886}
    .fil79 {fill:#002987}
    .fil78 {fill:#002A87}
    .fil77 {fill:#002B88}
    .fil76 {fill:#002B89}
    .fil75 {fill:#002C89}
    .fil74 {fill:#002D8A}
    .fil73 {fill:#002E8A}
    .fil72 {fill:#002E8B}
    .fil71 {fill:#002F8C}
    .fil70 {fill:#00308C}
    .fil69 {fill:#00318D}
    .fil68 {fill:#00328D}
    .fil67 {fill:#00338E}
    .fil66 {fill:#00338F}
    .fil65 {fill:#00348F}
    .fil64 {fill:#003590}
    .fil63 {fill:#003691}
    .fil62 {fill:#003792}
    .fil61 {fill:#003892}
    .fil60 {fill:#003993}
    .fil59 {fill:#003A94}
    .fil58 {fill:#003B94}
    .fil57 {fill:#003C95}
    .fil56 {fill:#003D96}
    .fil55 {fill:#003E97}
    .fil54 {fill:#003F97}
    .fil53 {fill:#004098}
    .fil52 {fill:#004199}
    .fil51 {fill:#00429A}
    .fil50 {fill:#00439B}
    .fil49 {fill:#00449B}
    .fil48 {fill:#00459C}
    .fil47 {fill:#00469D}
    .fil46 {fill:#00479E}
    .fil45 {fill:#00489F}
    .fil44 {fill:#00499F}
    .fil43 {fill:#004AA0}
    .fil42 {fill:#004BA1}
    .fil41 {fill:#004CA2}
    .fil40 {fill:#004EA3}
    .fil39 {fill:#004FA4}
    .fil38 {fill:#0050A5}
    .fil37 {fill:#0051A6}
    .fil36 {fill:#0052A6}
    .fil35 {fill:#0053A7}
    .fil34 {fill:#0054A8}
    .fil33 {fill:#0056A9}
    .fil32 {fill:#0057AA}
    .fil31 {fill:#0058AB}
    .fil30 {fill:#0059AC}
    .fil29 {fill:#005AAD}
    .fil28 {fill:#005BAE}
    .fil27 {fill:#005DAF}
    .fil26 {fill:#005EAF}
    .fil25 {fill:#005FB0}
    .fil24 {fill:#0060B1}
    .fil23 {fill:#0061B2}
    .fil22 {fill:#0062B3}
    .fil21 {fill:#0064B4}
    .fil20 {fill:#0065B5}
    .fil19 {fill:#0066B6}
    .fil18 {fill:#0067B7}
    .fil17 {fill:#0068B7}
    .fil16 {fill:#0069B8}
    .fil15 {fill:#006AB9}
    .fil14 {fill:#006BBA}
    .fil13 {fill:#006CBB}
    .fil12 {fill:#006DBC}
    .fil11 {fill:#006EBC}
    .fil10 {fill:#006FBD}
    .fil9 {fill:#0070BE}
    .fil8 {fill:#0071BE}
    .fil7 {fill:#0072BF}
    .fil6 {fill:#0073C0}
    .fil5 {fill:#0074C1}
    .fil4 {fill:#0075C1}
    .fil3 {fill:#0075C2}
    .fil2 {fill:#0076C2}
    .fil1 {fill:#0077C3}
    .fil140 {fill:#00096E;fill-rule:nonzero}
    .fil139 {fill:#117E57;fill-rule:nonzero}
    .fil138 {fill:url(#id1)}
   ]]>
  </style>
     <clipPath id="id0">
      <path d="M782 269c-14,10 37,34 159,73l182 61 -96 32c-84,28 -106,30 -204,14 -129,-22 -154,-24 -154,-5 0,7 32,23 72,34 39,11 71,24 71,30 0,5 -36,27 -83,49 -124,59 -254,188 -307,305 -38,86 -43,113 -37,213 13,187 91,293 287,392 284,143 838,177 1582,94 311,-33 886,-123 900,-139 8,-9 -245,0 -699,29 -438,27 -1115,11 -1307,-30 -176,-40 -355,-120 -430,-196 -114,-115 -143,-274 -75,-421 35,-76 144,-191 215,-229 32,-18 34,-16 34,46 0,54 5,65 29,61 16,-3 35,-32 47,-70 20,-59 29,-67 106,-91 46,-15 92,-27 101,-27 13,0 20,36 20,111 0,96 3,112 28,112 54,0 75,-32 107,-161l33 -132 102 -34c110,-36 137,-73 82,-102 -24,-14 -59,-9 -148,19l-117 37 -191 -45c-202,-46 -272,-52 -309,-30l0 0z"/>
     </clipPath>
  <linearGradient id="id1" gradientUnits="userSpaceOnUse" x1="414.057" y1="1535.49" x2="3366.93" y2="1535.49">
   <stop offset="0" style="stop-opacity:1; stop-color:#949494"/>
   <stop offset="1" style="stop-opacity:1; stop-color:#4D4D4D"/>
  </linearGradient>
 </defs>
 <g id="Layer_x0020_1">
  <metadata id="CorelCorpID_0Corel-Layer"/>
  <path class="fil0" d="M1918 0c986,0 1837,346 1908,884 130,968 -3836,1343 -3826,261 5,-543 932,-1145 1918,-1145z"/>
  <g id="_922830506176">
   <g>
    <g style="clip-path:url(#id0)">
     <polygon class="fil1" points="379,247 378,247 378,1644 379,1644 "/>
     <polygon id="1" class="fil1" points="372,247 388,247 388,1644 372,1644 "/>
     <polygon id="2" class="fil1" points="383,247 399,247 399,1644 383,1644 "/>
     <polygon id="3" class="fil1" points="394,247 410,247 410,1644 394,1644 "/>
     <polygon id="4" class="fil1" points="405,247 421,247 421,1644 405,1644 "/>
     <polygon id="5" class="fil2" points="416,247 432,247 432,1644 416,1644 "/>
     <polygon id="6" class="fil2" points="426,247 443,247 443,1644 426,1644 "/>
     <polygon id="7" class="fil3" points="437,247 453,247 453,1644 437,1644 "/>
     <polygon id="8" class="fil4" points="448,247 464,247 464,1644 448,1644 "/>
     <polygon id="9" class="fil5" points="459,247 475,247 475,1644 459,1644 "/>
     <polygon id="10" class="fil6" points="470,247 486,247 486,1644 470,1644 "/>
     <polygon id="11" class="fil6" points="480,247 497,247 497,1644 480,1644 "/>
     <polygon id="12" class="fil7" points="491,247 508,247 508,1644 491,1644 "/>
     <polygon id="13" class="fil8" points="502,247 518,247 518,1644 502,1644 "/>
     <polygon id="14" class="fil9" points="513,247 529,247 529,1644 513,1644 "/>
     <polygon id="15" class="fil10" points="524,247 540,247 540,1644 524,1644 "/>
     <polygon id="16" class="fil11" points="535,247 551,247 551,1644 535,1644 "/>
     <polygon id="17" class="fil12" points="545,247 562,247 562,1644 545,1644 "/>
     <polygon id="18" class="fil13" points="556,247 572,247 572,1644 556,1644 "/>
     <polygon id="19" class="fil14" points="567,247 583,247 583,1644 567,1644 "/>
     <polygon id="20" class="fil15" points="578,247 594,247 594,1644 578,1644 "/>
     <polygon id="21" class="fil16" points="589,247 605,247 605,1644 589,1644 "/>
     <polygon id="22" class="fil17" points="600,247 616,247 616,1644 600,1644 "/>
     <polygon id="23" class="fil18" points="610,247 627,247 627,1644 610,1644 "/>
     <polygon id="24" class="fil19" points="621,247 637,247 637,1644 621,1644 "/>
     <polygon id="25" class="fil20" points="632,247 648,247 648,1644 632,1644 "/>
     <polygon id="26" class="fil21" points="643,247 659,247 659,1644 643,1644 "/>
     <polygon id="27" class="fil22" points="654,247 670,247 670,1644 654,1644 "/>
     <polygon id="28" class="fil23" points="664,247 681,247 681,1644 664,1644 "/>
     <polygon id="29" class="fil24" points="675,247 692,247 692,1644 675,1644 "/>
     <polygon id="30" class="fil25" points="686,247 702,247 702,1644 686,1644 "/>
     <polygon id="31" class="fil26" points="697,247 713,247 713,1644 697,1644 "/>
     <polygon id="32" class="fil27" points="708,247 724,247 724,1644 708,1644 "/>
     <polygon id="33" class="fil28" points="719,247 735,247 735,1644 719,1644 "/>
     <polygon id="34" class="fil29" points="729,247 746,247 746,1644 729,1644 "/>
     <polygon id="35" class="fil30" points="740,247 756,247 756,1644 740,1644 "/>
     <polygon id="36" class="fil31" points="751,247 767,247 767,1644 751,1644 "/>
     <polygon id="37" class="fil32" points="762,247 778,247 778,1644 762,1644 "/>
     <polygon id="38" class="fil33" points="773,247 789,247 789,1644 773,1644 "/>
     <polygon id="39" class="fil34" points="784,247 800,247 800,1644 784,1644 "/>
     <polygon id="40" class="fil35" points="794,247 811,247 811,1644 794,1644 "/>
     <polygon id="41" class="fil36" points="805,247 821,247 821,1644 805,1644 "/>
     <polygon id="42" class="fil37" points="816,247 832,247 832,1644 816,1644 "/>
     <polygon id="43" class="fil38" points="827,247 843,247 843,1644 827,1644 "/>
     <polygon id="44" class="fil39" points="838,247 854,247 854,1644 838,1644 "/>
     <polygon id="45" class="fil40" points="848,247 865,247 865,1644 848,1644 "/>
     <polygon id="46" class="fil41" points="859,247 876,247 876,1644 859,1644 "/>
     <polygon id="47" class="fil42" points="870,247 886,247 886,1644 870,1644 "/>
     <polygon id="48" class="fil43" points="881,247 897,247 897,1644 881,1644 "/>
     <polygon id="49" class="fil44" points="892,247 908,247 908,1644 892,1644 "/>
     <polygon id="50" class="fil45" points="903,247 919,247 919,1644 903,1644 "/>
     <polygon id="51" class="fil46" points="913,247 930,247 930,1644 913,1644 "/>
     <polygon id="52" class="fil47" points="924,247 941,247 941,1644 924,1644 "/>
     <polygon id="53" class="fil48" points="935,247 951,247 951,1644 935,1644 "/>
     <polygon id="54" class="fil49" points="946,247 962,247 962,1644 946,1644 "/>
     <polygon id="55" class="fil50" points="957,247 973,247 973,1644 957,1644 "/>
     <polygon id="56" class="fil51" points="968,247 984,247 984,1644 968,1644 "/>
     <polygon id="57" class="fil52" points="978,247 995,247 995,1644 978,1644 "/>
     <polygon id="58" class="fil53" points="989,247 1005,247 1005,1644 989,1644 "/>
     <polygon id="59" class="fil54" points="1000,247 1016,247 1016,1644 1000,1644 "/>
     <polygon id="60" class="fil55" points="1011,247 1027,247 1027,1644 1011,1644 "/>
     <polygon id="61" class="fil56" points="1022,247 1038,247 1038,1644 1022,1644 "/>
     <polygon id="62" class="fil57" points="1033,247 1049,247 1049,1644 1033,1644 "/>
     <polygon id="63" class="fil58" points="1043,247 1060,247 1060,1644 1043,1644 "/>
     <polygon id="64" class="fil59" points="1054,247 1070,247 1070,1644 1054,1644 "/>
     <polygon id="65" class="fil60" points="1065,247 1081,247 1081,1644 1065,1644 "/>
     <polygon id="66" class="fil61" points="1076,247 1092,247 1092,1644 1076,1644 "/>
     <polygon id="67" class="fil62" points="1087,247 1103,247 1103,1644 1087,1644 "/>
     <polygon id="68" class="fil63" points="1097,247 1114,247 1114,1644 1097,1644 "/>
     <polygon id="69" class="fil64" points="1108,247 1125,247 1125,1644 1108,1644 "/>
     <polygon id="70" class="fil65" points="1119,247 1135,247 1135,1644 1119,1644 "/>
     <polygon id="71" class="fil66" points="1130,247 1146,247 1146,1644 1130,1644 "/>
     <polygon id="72" class="fil67" points="1141,247 1157,247 1157,1644 1141,1644 "/>
     <polygon id="73" class="fil68" points="1152,247 1168,247 1168,1644 1152,1644 "/>
     <polygon id="74" class="fil69" points="1162,247 1179,247 1179,1644 1162,1644 "/>
     <polygon id="75" class="fil70" points="1173,247 1189,247 1189,1644 1173,1644 "/>
     <polygon id="76" class="fil71" points="1184,247 1200,247 1200,1644 1184,1644 "/>
     <polygon id="77" class="fil72" points="1195,247 1211,247 1211,1644 1195,1644 "/>
     <polygon id="78" class="fil73" points="1206,247 1222,247 1222,1644 1206,1644 "/>
     <polygon id="79" class="fil74" points="1217,247 1233,247 1233,1644 1217,1644 "/>
     <polygon id="80" class="fil75" points="1227,247 1244,247 1244,1644 1227,1644 "/>
     <polygon id="81" class="fil76" points="1238,247 1254,247 1254,1644 1238,1644 "/>
     <polygon id="82" class="fil77" points="1249,247 1265,247 1265,1644 1249,1644 "/>
     <polygon id="83" class="fil78" points="1260,247 1276,247 1276,1644 1260,1644 "/>
     <polygon id="84" class="fil79" points="1271,247 1287,247 1287,1644 1271,1644 "/>
     <polygon id="85" class="fil80" points="1281,247 1298,247 1298,1644 1281,1644 "/>
     <polygon id="86" class="fil80" points="1292,247 1309,247 1309,1644 1292,1644 "/>
     <polygon id="87" class="fil81" points="1303,247 1319,247 1319,1644 1303,1644 "/>
     <polygon id="88" class="fil82" points="1314,247 1330,247 1330,1644 1314,1644 "/>
     <polygon id="89" class="fil83" points="1325,247 1341,247 1341,1644 1325,1644 "/>
     <polygon id="90" class="fil84" points="1336,247 1352,247 1352,1644 1336,1644 "/>
     <polygon id="91" class="fil85" points="1346,247 1363,247 1363,1644 1346,1644 "/>
     <polygon id="92" class="fil85" points="1357,247 1373,247 1373,1644 1357,1644 "/>
     <polygon id="93" class="fil86" points="1368,247 1384,247 1384,1644 1368,1644 "/>
     <polygon id="94" class="fil87" points="1379,247 1395,247 1395,1644 1379,1644 "/>
     <polygon id="95" class="fil88" points="1390,247 1406,247 1406,1644 1390,1644 "/>
     <polygon id="96" class="fil89" points="1401,247 1417,247 1417,1644 1401,1644 "/>
     <polygon id="97" class="fil90" points="1411,247 1428,247 1428,1644 1411,1644 "/>
     <polygon id="98" class="fil90" points="1422,247 1438,247 1438,1644 1422,1644 "/>
     <polygon id="99" class="fil91" points="1433,247 1449,247 1449,1644 1433,1644 "/>
     <polygon id="100" class="fil91" points="1444,247 1460,247 1460,1644 1444,1644 "/>
     <polygon id="101" class="fil92" points="1455,247 1471,247 1471,1644 1455,1644 "/>
     <polygon id="102" class="fil92" points="1466,247 1482,247 1482,1644 1466,1644 "/>
     <polygon id="103" class="fil93" points="1476,247 1493,247 1493,1644 1476,1644 "/>
     <polygon id="104" class="fil94" points="1487,247 1503,247 1503,1644 1487,1644 "/>
     <polygon id="105" class="fil94" points="1498,247 1514,247 1514,1644 1498,1644 "/>
     <polygon id="106" class="fil95" points="1509,247 1525,247 1525,1644 1509,1644 "/>
     <polygon id="107" class="fil95" points="1520,247 1536,247 1536,1644 1520,1644 "/>
     <polygon id="108" class="fil96" points="1530,247 1547,247 1547,1644 1530,1644 "/>
     <polygon id="109" class="fil96" points="1541,247 1558,247 1558,1644 1541,1644 "/>
     <polygon id="110" class="fil97" points="1552,247 1568,247 1568,1644 1552,1644 "/>
     <polygon id="111" class="fil98" points="1563,247 1579,247 1579,1644 1563,1644 "/>
     <polygon id="112" class="fil99" points="1574,247 1590,247 1590,1644 1574,1644 "/>
     <polygon id="113" class="fil100" points="1585,247 1601,247 1601,1644 1585,1644 "/>
     <polygon id="114" class="fil101" points="1595,247 1612,247 1612,1644 1595,1644 "/>
     <polygon id="115" class="fil101" points="1606,247 1622,247 1622,1644 1606,1644 "/>
     <polygon id="116" class="fil102" points="1617,247 1633,247 1633,1644 1617,1644 "/>
     <polygon id="117" class="fil102" points="1628,247 1644,247 1644,1644 1628,1644 "/>
     <polygon id="118" class="fil102" points="1639,247 1655,247 1655,1644 1639,1644 "/>
     <polygon id="119" class="fil103" points="1650,247 1666,247 1666,1644 1650,1644 "/>
     <polygon id="120" class="fil103" points="1660,247 1677,247 1677,1644 1660,1644 "/>
     <polygon id="121" class="fil104" points="1671,247 1687,247 1687,1644 1671,1644 "/>
     <polygon id="122" class="fil105" points="1682,247 1698,247 1698,1644 1682,1644 "/>
     <polygon id="123" class="fil106" points="1693,247 1709,247 1709,1644 1693,1644 "/>
     <polygon id="124" class="fil106" points="1704,247 1720,247 1720,1644 1704,1644 "/>
     <polygon id="125" class="fil107" points="1714,247 1731,247 1731,1644 1714,1644 "/>
     <polygon id="126" class="fil108" points="1725,247 1742,247 1742,1644 1725,1644 "/>
     <polygon id="127" class="fil108" points="1736,247 1752,247 1752,1644 1736,1644 "/>
     <polygon id="128" class="fil109" points="1747,247 1763,247 1763,1644 1747,1644 "/>
     <polygon id="129" class="fil109" points="1758,247 1774,247 1774,1644 1758,1644 "/>
     <polygon id="130" class="fil109" points="1769,247 1785,247 1785,1644 1769,1644 "/>
     <polygon id="131" class="fil110" points="1779,247 1796,247 1796,1644 1779,1644 "/>
     <polygon id="132" class="fil111" points="1790,247 1806,247 1806,1644 1790,1644 "/>
     <polygon id="133" class="fil111" points="1801,247 1817,247 1817,1644 1801,1644 "/>
     <polygon id="134" class="fil112" points="1812,247 1828,247 1828,1644 1812,1644 "/>
     <polygon id="135" class="fil112" points="1823,247 1839,247 1839,1644 1823,1644 "/>
     <polygon id="136" class="fil113" points="1834,247 1850,247 1850,1644 1834,1644 "/>
     <polygon id="137" class="fil114" points="1844,247 1861,247 1861,1644 1844,1644 "/>
     <polygon id="138" class="fil114" points="1855,247 1871,247 1871,1644 1855,1644 "/>
     <polygon id="139" class="fil114" points="1866,247 1882,247 1882,1644 1866,1644 "/>
     <polygon id="140" class="fil115" points="1877,247 1893,247 1893,1644 1877,1644 "/>
     <polygon id="141" class="fil115" points="1888,247 1904,247 1904,1644 1888,1644 "/>
     <polygon id="142" class="fil115" points="1898,247 1915,247 1915,1644 1898,1644 "/>
     <polygon id="143" class="fil116" points="1909,247 1926,247 1926,1644 1909,1644 "/>
     <polygon id="144" class="fil117" points="1920,247 1936,247 1936,1644 1920,1644 "/>
     <polygon id="145" class="fil117" points="1931,247 1947,247 1947,1644 1931,1644 "/>
     <polygon id="146" class="fil117" points="1942,247 1958,247 1958,1644 1942,1644 "/>
     <polygon id="147" class="fil118" points="1953,247 1969,247 1969,1644 1953,1644 "/>
     <polygon id="148" class="fil118" points="1963,247 1980,247 1980,1644 1963,1644 "/>
     <polygon id="149" class="fil119" points="1974,247 1991,247 1991,1644 1974,1644 "/>
     <polygon id="150" class="fil119" points="1985,247 2001,247 2001,1644 1985,1644 "/>
     <polygon id="151" class="fil120" points="1996,247 2012,247 2012,1644 1996,1644 "/>
     <polygon id="152" class="fil120" points="2007,247 2023,247 2023,1644 2007,1644 "/>
     <polygon id="153" class="fil120" points="2018,247 2034,247 2034,1644 2018,1644 "/>
     <polygon id="154" class="fil121" points="2028,247 2045,247 2045,1644 2028,1644 "/>
     <polygon id="155" class="fil122" points="2039,247 2055,247 2055,1644 2039,1644 "/>
     <polygon id="156" class="fil122" points="2050,247 2066,247 2066,1644 2050,1644 "/>
     <polygon id="157" class="fil122" points="2061,247 2077,247 2077,1644 2061,1644 "/>
     <polygon id="158" class="fil122" points="2072,247 2088,247 2088,1644 2072,1644 "/>
     <polygon id="159" class="fil123" points="2083,247 2099,247 2099,1644 2083,1644 "/>
     <polygon id="160" class="fil123" points="2093,247 2110,247 2110,1644 2093,1644 "/>
     <polygon id="161" class="fil123" points="2104,247 2120,247 2120,1644 2104,1644 "/>
     <polygon id="162" class="fil123" points="2115,247 2131,247 2131,1644 2115,1644 "/>
     <polygon id="163" class="fil123" points="2126,247 2142,247 2142,1644 2126,1644 "/>
     <polygon id="164" class="fil124" points="2137,247 2153,247 2153,1644 2137,1644 "/>
     <polygon id="165" class="fil124" points="2147,247 2164,247 2164,1644 2147,1644 "/>
     <polygon id="166" class="fil125" points="2158,247 2175,247 2175,1644 2158,1644 "/>
     <polygon id="167" class="fil125" points="2169,247 2185,247 2185,1644 2169,1644 "/>
     <polygon id="168" class="fil125" points="2180,247 2196,247 2196,1644 2180,1644 "/>
     <polygon id="169" class="fil126" points="2191,247 2207,247 2207,1644 2191,1644 "/>
     <polygon id="170" class="fil126" points="2202,247 2218,247 2218,1644 2202,1644 "/>
     <polygon id="171" class="fil126" points="2212,247 2229,247 2229,1644 2212,1644 "/>
     <polygon id="172" class="fil126" points="2223,247 2239,247 2239,1644 2223,1644 "/>
     <polygon id="173" class="fil127" points="2234,247 2250,247 2250,1644 2234,1644 "/>
     <polygon id="174" class="fil127" points="2245,247 2261,247 2261,1644 2245,1644 "/>
     <polygon id="175" class="fil128" points="2256,247 2272,247 2272,1644 2256,1644 "/>
     <polygon id="176" class="fil128" points="2267,247 2283,247 2283,1644 2267,1644 "/>
     <polygon id="177" class="fil128" points="2277,247 2294,247 2294,1644 2277,1644 "/>
     <polygon id="178" class="fil128" points="2288,247 2304,247 2304,1644 2288,1644 "/>
     <polygon id="179" class="fil128" points="2299,247 2315,247 2315,1644 2299,1644 "/>
     <polygon id="180" class="fil128" points="2310,247 2326,247 2326,1644 2310,1644 "/>
     <polygon id="181" class="fil129" points="2321,247 2337,247 2337,1644 2321,1644 "/>
     <polygon id="182" class="fil129" points="2331,247 2348,247 2348,1644 2331,1644 "/>
     <polygon id="183" class="fil129" points="2342,247 2359,247 2359,1644 2342,1644 "/>
     <polygon id="184" class="fil129" points="2353,247 2369,247 2369,1644 2353,1644 "/>
     <polygon id="185" class="fil129" points="2364,247 2380,247 2380,1644 2364,1644 "/>
     <polygon id="186" class="fil129" points="2375,247 2391,247 2391,1644 2375,1644 "/>
     <polygon id="187" class="fil129" points="2386,247 2402,247 2402,1644 2386,1644 "/>
     <polygon id="188" class="fil129" points="2396,247 2413,247 2413,1644 2396,1644 "/>
     <polygon id="189" class="fil130" points="2407,247 2423,247 2423,1644 2407,1644 "/>
     <polygon id="190" class="fil130" points="2418,247 2434,247 2434,1644 2418,1644 "/>
     <polygon id="191" class="fil131" points="2429,247 2445,247 2445,1644 2429,1644 "/>
     <polygon id="192" class="fil131" points="2440,247 2456,247 2456,1644 2440,1644 "/>
     <polygon id="193" class="fil131" points="2451,247 2467,247 2467,1644 2451,1644 "/>
     <polygon id="194" class="fil131" points="2461,247 2478,247 2478,1644 2461,1644 "/>
     <polygon id="195" class="fil131" points="2472,247 2488,247 2488,1644 2472,1644 "/>
     <polygon id="196" class="fil131" points="2483,247 2499,247 2499,1644 2483,1644 "/>
     <polygon id="197" class="fil131" points="2494,247 2510,247 2510,1644 2494,1644 "/>
     <polygon id="198" class="fil132" points="2505,247 2521,247 2521,1644 2505,1644 "/>
     <polygon id="199" class="fil132" points="2516,247 2532,247 2532,1644 2516,1644 "/>
     <polygon id="200" class="fil132" points="2526,247 2543,247 2543,1644 2526,1644 "/>
     <polygon id="201" class="fil132" points="2537,247 2553,247 2553,1644 2537,1644 "/>
     <polygon id="202" class="fil132" points="2548,247 2564,247 2564,1644 2548,1644 "/>
     <polygon id="203" class="fil132" points="2559,247 2575,247 2575,1644 2559,1644 "/>
     <polygon id="204" class="fil133" points="2570,247 2586,247 2586,1644 2570,1644 "/>
     <polygon id="205" class="fil133" points="2580,247 2597,247 2597,1644 2580,1644 "/>
     <polygon id="206" class="fil133" points="2591,247 2608,247 2608,1644 2591,1644 "/>
     <polygon id="207" class="fil133" points="2602,247 2618,247 2618,1644 2602,1644 "/>
     <polygon id="208" class="fil133" points="2613,247 2629,247 2629,1644 2613,1644 "/>
     <polygon id="209" class="fil133" points="2624,247 2640,247 2640,1644 2624,1644 "/>
     <polygon id="210" class="fil134" points="2635,247 2651,247 2651,1644 2635,1644 "/>
     <polygon id="211" class="fil134" points="2645,247 2662,247 2662,1644 2645,1644 "/>
     <polygon id="212" class="fil134" points="2656,247 2672,247 2672,1644 2656,1644 "/>
     <polygon id="213" class="fil134" points="2667,247 2683,247 2683,1644 2667,1644 "/>
     <polygon id="214" class="fil134" points="2678,247 2694,247 2694,1644 2678,1644 "/>
     <polygon id="215" class="fil134" points="2689,247 2705,247 2705,1644 2689,1644 "/>
     <polygon id="216" class="fil134" points="2700,247 2716,247 2716,1644 2700,1644 "/>
     <polygon id="217" class="fil134" points="2710,247 2727,247 2727,1644 2710,1644 "/>
     <polygon id="218" class="fil134" points="2721,247 2737,247 2737,1644 2721,1644 "/>
     <polygon id="219" class="fil134" points="2732,247 2748,247 2748,1644 2732,1644 "/>
     <polygon id="220" class="fil134" points="2743,247 2759,247 2759,1644 2743,1644 "/>
     <polygon id="221" class="fil134" points="2754,247 2770,247 2770,1644 2754,1644 "/>
     <polygon id="222" class="fil134" points="2764,247 2781,247 2781,1644 2764,1644 "/>
     <polygon id="223" class="fil134" points="2775,247 2792,247 2792,1644 2775,1644 "/>
     <polygon id="224" class="fil134" points="2786,247 2802,247 2802,1644 2786,1644 "/>
     <polygon id="225" class="fil135" points="2797,247 2813,247 2813,1644 2797,1644 "/>
     <polygon id="226" class="fil135" points="2808,247 2824,247 2824,1644 2808,1644 "/>
     <polygon id="227" class="fil135" points="2819,247 2835,247 2835,1644 2819,1644 "/>
     <polygon id="228" class="fil136" points="2829,247 2846,247 2846,1644 2829,1644 "/>
     <polygon id="229" class="fil136" points="2840,247 2856,247 2856,1644 2840,1644 "/>
     <polygon id="230" class="fil136" points="2851,247 2867,247 2867,1644 2851,1644 "/>
     <polygon id="231" class="fil136" points="2862,247 2878,247 2878,1644 2862,1644 "/>
     <polygon id="232" class="fil136" points="2873,247 2889,247 2889,1644 2873,1644 "/>
     <polygon id="233" class="fil136" points="2884,247 2900,247 2900,1644 2884,1644 "/>
     <polygon id="234" class="fil136" points="2894,247 2911,247 2911,1644 2894,1644 "/>
     <polygon id="235" class="fil136" points="2905,247 2921,247 2921,1644 2905,1644 "/>
     <polygon id="236" class="fil136" points="2916,247 2932,247 2932,1644 2916,1644 "/>
     <polygon id="237" class="fil136" points="2927,247 2943,247 2943,1644 2927,1644 "/>
     <polygon id="238" class="fil136" points="2938,247 2954,247 2954,1644 2938,1644 "/>
     <polygon id="239" class="fil136" points="2948,247 2965,247 2965,1644 2948,1644 "/>
     <polygon id="240" class="fil136" points="2959,247 2976,247 2976,1644 2959,1644 "/>
     <polygon id="241" class="fil136" points="2970,247 2986,247 2986,1644 2970,1644 "/>
     <polygon id="242" class="fil136" points="2981,247 2997,247 2997,1644 2981,1644 "/>
     <polygon id="243" class="fil136" points="2992,247 3008,247 3008,1644 2992,1644 "/>
     <polygon id="244" class="fil136" points="3003,247 3019,247 3019,1644 3003,1644 "/>
     <polygon id="245" class="fil136" points="3013,247 3030,247 3030,1644 3013,1644 "/>
     <polygon id="246" class="fil136" points="3024,247 3041,247 3041,1644 3024,1644 "/>
     <polygon id="247" class="fil136" points="3035,247 3051,247 3051,1644 3035,1644 "/>
     <polygon id="248" class="fil136" points="3046,247 3062,247 3062,1644 3046,1644 "/>
     <polygon id="249" class="fil136" points="3057,247 3073,247 3073,1644 3057,1644 "/>
     <polygon id="250" class="fil136" points="3068,247 3084,247 3084,1644 3068,1644 "/>
     <polygon id="251" class="fil136" points="3078,247 3095,247 3095,1644 3078,1644 "/>
     <polygon id="252" class="fil136" points="3089,247 3105,247 3105,1644 3089,1644 "/>
     <polygon id="253" class="fil136" points="3100,247 3116,247 3116,1644 3100,1644 "/>
     <polygon id="254" class="fil136" points="3111,247 3127,247 3127,1644 3111,1644 "/>
     <polygon id="255" class="fil136" points="3122,247 3138,247 3138,1644 3122,1644 "/>
     <polygon id="256" class="fil136" points="3133,247 3149,247 3149,1644 3133,1644 "/>
     <polygon id="257" class="fil136" points="3143,247 3160,247 3160,1644 3143,1644 "/>
     <polygon id="258" class="fil136" points="3154,247 3162,247 3162,1644 3154,1644 "/>
    </g>
   </g>
   <line class="fil137 str0" x1="1027" y1="1067" x2="3430" y2= "1067" />
   <path class="fil138" d="M414 1363c0,39 76,130 150,177 173,118 463,171 909,169 415,-1 885,-57 1393,-166 657,-160 708,-194 -89,-7 -448,81 -698,106 -1124,116 -667,14 -975,-48 -1170,-239 -39,-37 -69,-57 -69,-50l0 0z"/>
   <path class="fil139" d="M1153 951l8 -46 105 0 -15 94c-23,14 -42,23 -59,28 -16,5 -35,8 -56,8 -26,0 -47,-5 -62,-14 -15,-9 -25,-22 -32,-40 -6,-17 -7,-38 -3,-60 4,-25 13,-45 26,-63 13,-18 29,-32 50,-41 16,-7 37,-11 62,-11 25,0 43,3 54,7 11,4 20,11 27,21 6,9 10,21 12,35l-68 12c-1,-9 -5,-15 -11,-19 -5,-5 -13,-7 -23,-7 -15,0 -28,5 -39,15 -10,11 -17,27 -21,50 -4,24 -3,41 4,51 8,10 19,15 35,15 8,0 15,-1 23,-3 7,-2 16,-6 25,-11l4 -21 -46 0z"/>
   <path id="1" class="fil139" d="M1309 871l58 0 -5 26c8,-11 15,-19 21,-23 7,-5 15,-7 23,-7 9,0 19,3 29,9l-27 43c-7,-3 -12,-4 -16,-4 -8,0 -15,3 -21,10 -8,9 -14,27 -18,52l-9 54 -62 0 27 -160z"/>
   <path id="2" class="fil139" d="M1612 966l-123 0c-1,10 1,17 4,22 5,7 12,11 22,11 6,0 12,-2 18,-5 3,-2 7,-5 12,-10l60 6c-12,16 -26,27 -40,34 -14,7 -33,11 -58,11 -21,0 -37,-3 -48,-9 -11,-6 -20,-16 -26,-29 -5,-13 -7,-28 -4,-46 4,-25 16,-45 35,-61 18,-15 42,-23 70,-23 23,0 40,4 52,11 12,7 21,17 25,30 5,13 6,30 2,51l-1 7zm-57 -29c0,-12 -1,-21 -6,-26 -4,-5 -10,-7 -19,-7 -10,0 -18,3 -25,11 -5,5 -8,12 -11,22l61 0z"/>
   <path id="3" class="fil139" d="M1818 966l-123 0c-1,10 0,17 4,22 5,7 12,11 21,11 6,0 12,-2 18,-5 4,-2 8,-5 13,-10l59 6c-12,16 -25,27 -39,34 -14,7 -34,11 -58,11 -21,0 -37,-3 -49,-9 -11,-6 -19,-16 -25,-29 -6,-13 -7,-28 -4,-46 4,-25 16,-45 34,-61 19,-15 42,-23 70,-23 23,0 41,4 53,11 12,7 20,17 25,30 5,13 5,30 2,51l-1 7zm-58 -29c1,-12 -1,-21 -5,-26 -4,-5 -11,-7 -19,-7 -10,0 -18,3 -26,11 -4,5 -8,12 -10,22l60 0z"/>
   <path id="4" class="fil139" d="M1862 871l57 0 -4 26c10,-11 20,-18 29,-23 10,-5 21,-7 33,-7 17,0 30,5 37,15 8,10 10,26 7,47l-17 102 -62 0 15 -88c2,-10 1,-17 -2,-21 -3,-5 -8,-7 -15,-7 -7,0 -13,3 -19,9 -5,5 -9,15 -12,30l-13 77 -61 0 27 -160z"/>
   <polygon id="5" class="fil139" points="2185,810 2253,810 2240,887 2315,887 2328,810 2396,810 2359,1031 2290,1031 2305,941 2231,941 2216,1031 2147,1031 "/>
   <path id="6" class="fil139" d="M2440 810l61 0 -7 42 -62 0 8 -42zm-11 61l62 0 -28 160 -61 0 27 -160z"/>
   <polygon id="7" class="fil139" points="2542,810 2604,810 2566,1031 2505,1031 "/>
   <polygon id="8" class="fil139" points="2645,810 2706,810 2669,1031 2607,1031 "/>
   <polygon id="9" class="fil139" points="2837,810 3044,810 3035,865 2965,865 2937,1031 2869,1031 2897,865 2828,865 "/>
   <path id="10" class="fil139" d="M3048 871l57 0 -4 26c7,-11 14,-19 21,-23 7,-5 14,-7 23,-7 9,0 18,3 28,9l-26 43c-7,-3 -12,-4 -17,-4 -8,0 -15,3 -20,10 -8,9 -14,27 -18,52l-10 54 -61 0 27 -160z"/>
   <path id="11" class="fil139" d="M3197 810l61 0 -7 42 -61 0 7 -42zm-11 61l62 0 -28 160 -61 0 27 -160z"/>
   <path id="12" class="fil139" d="M3250 1092l37 -221 58 0 -4 23c9,-10 18,-16 25,-20 10,-4 20,-7 31,-7 21,0 36,8 45,25 9,16 11,36 7,61 -4,26 -14,47 -29,61 -15,14 -33,21 -52,21 -10,0 -18,-2 -25,-5 -7,-3 -13,-8 -18,-14l-13 76 -62 0zm85 -141c-2,13 -1,23 3,29 4,6 11,9 19,9 7,0 13,-3 19,-9 6,-6 10,-16 12,-30 3,-13 2,-23 -2,-29 -4,-6 -10,-9 -17,-9 -8,0 -15,3 -21,9 -6,7 -11,17 -13,30z"/>
   <path class="fil140" d="M1102 1150l-36 122c-2,7 -3,12 -3,14 0,1 1,1 1,2 1,1 2,1 2,1 2,0 3,-1 4,-1 3,-3 7,-8 12,-15l4 2c-7,11 -14,19 -20,24 -5,3 -10,5 -15,5 -5,0 -9,-2 -11,-4 -3,-3 -5,-6 -5,-10 0,-2 1,-7 3,-13l29 -100c2,-5 3,-9 3,-11 0,-1 -1,-3 -3,-4 -2,-1 -5,-2 -9,-2l1 -4 37 -6 6 0z"/>
   <path id="1" class="fil140" d="M1129 1260c-1,4 -1,8 -1,11 0,6 1,10 4,13 3,4 8,5 13,5 5,0 10,-1 15,-3 5,-3 11,-7 18,-13l3 3c-8,10 -16,17 -24,21 -8,4 -17,7 -26,7 -12,0 -21,-3 -25,-9 -5,-6 -7,-13 -7,-20 0,-12 3,-24 10,-36 7,-12 16,-21 28,-29 12,-7 24,-10 36,-10 6,0 11,1 14,4 3,3 5,7 5,11 0,5 -2,11 -5,16 -4,6 -9,12 -16,16 -6,4 -13,7 -21,9 -5,2 -12,3 -21,4zm1 -6c6,-1 11,-2 14,-4 4,-1 7,-4 11,-8 3,-3 6,-8 9,-13 2,-6 3,-11 3,-16 0,-2 0,-3 -2,-4 -1,-2 -2,-2 -4,-2 -3,0 -7,2 -12,7 -7,9 -14,22 -19,40z"/>
   <path id="2" class="fil140" d="M1257 1173l-9 30 14 0 -4 12 -14 0 -18 63c-1,4 -2,7 -2,9 0,1 1,2 1,3 1,0 2,1 3,1 1,0 2,-1 3,-2 4,-2 7,-7 12,-13l4 2c-5,9 -11,15 -17,19 -6,5 -12,7 -17,7 -5,0 -9,-2 -12,-4 -3,-3 -4,-6 -4,-10 0,-4 1,-9 3,-16l17 -59 -15 0 2 -8c10,-3 17,-7 24,-12 6,-4 14,-12 23,-22l6 0z"/>
   <path id="3" class="fil140" d="M1289 1219l-3 -5c12,-6 18,-11 21,-14 2,-3 3,-5 3,-8 0,-3 -2,-6 -5,-9 -4,-4 -7,-7 -8,-9 -1,-2 -1,-4 -1,-7 0,-5 2,-9 5,-12 4,-4 8,-5 13,-5 5,0 9,2 12,6 4,3 6,8 6,14 0,9 -4,18 -11,27 -6,8 -17,16 -32,22z"/>
   <path id="4" class="fil140" d="M1411 1200l-4 33 -4 0c-1,-8 -4,-15 -8,-20 -5,-5 -10,-8 -16,-8 -3,0 -6,1 -8,3 -2,2 -3,5 -3,7 0,3 0,5 1,7 1,2 3,5 7,8 11,12 18,21 20,25 3,5 4,10 4,15 0,6 -1,12 -4,17 -3,5 -7,9 -13,12 -6,3 -12,5 -18,5 -4,0 -10,-1 -16,-3 -4,-1 -7,-2 -9,-2 -2,0 -3,1 -4,1 -1,1 -2,2 -3,4l-5 0 6 -37 3 0c3,9 5,15 7,19 3,4 6,7 9,9 4,2 8,3 11,3 4,0 7,-1 10,-3 2,-3 4,-6 4,-9 0,-4 -1,-7 -3,-10 -2,-3 -5,-8 -12,-15 -8,-9 -14,-17 -16,-22 -2,-3 -3,-7 -3,-12 0,-8 3,-14 8,-19 6,-6 14,-8 24,-8 5,0 10,1 17,2 3,1 6,1 8,1 2,0 5,-1 6,-3l4 0z"/>
   <path id="5" class="fil140" d="M1557 1206l29 0 -4 12 -15 0c3,5 4,9 4,13 0,6 -2,12 -5,18 -4,5 -9,10 -16,13 -7,3 -15,5 -24,5 -2,0 -4,0 -7,0 -3,-1 -6,-1 -9,-2 -5,3 -8,5 -9,6 -1,1 -1,2 -1,3 0,2 0,3 1,4 2,1 5,2 9,3 14,4 24,6 29,8 6,3 11,6 15,10 3,5 4,10 4,16 0,9 -4,17 -12,23 -8,7 -21,11 -39,11 -17,0 -30,-3 -39,-9 -6,-4 -9,-9 -9,-15 0,-5 2,-9 6,-12 4,-4 13,-8 26,-10 -5,-3 -8,-5 -9,-7 -2,-3 -3,-6 -3,-9 0,-5 2,-9 5,-13 4,-3 11,-7 20,-11 -7,-2 -12,-6 -15,-11 -4,-4 -5,-9 -5,-15 0,-6 2,-12 6,-18 3,-6 9,-10 16,-14 8,-3 16,-5 26,-5 6,0 12,0 16,2 3,1 6,2 9,4zm-23 -1c-3,0 -6,1 -9,4 -4,3 -7,9 -10,17 -3,9 -4,17 -4,24 0,4 1,6 3,9 2,2 4,3 7,3 3,0 6,-1 8,-3 4,-4 8,-11 11,-20 3,-8 4,-16 4,-23 0,-3 -1,-6 -3,-8 -2,-2 -4,-3 -7,-3zm-37 100c-7,3 -12,6 -14,9 -3,3 -4,6 -4,10 0,4 2,9 7,13 5,3 13,5 24,5 9,0 16,-1 20,-5 4,-3 6,-7 6,-11 0,-4 -2,-7 -6,-10 -3,-2 -11,-5 -21,-7 -5,-2 -9,-3 -12,-4z"/>
   <path id="6" class="fil140" d="M1655 1200c6,0 11,1 16,4 5,2 9,6 12,11 2,4 4,10 4,15 0,12 -4,24 -10,36 -7,11 -15,21 -26,27 -11,7 -22,11 -32,11 -10,0 -18,-3 -23,-9 -6,-6 -8,-13 -8,-22 0,-10 2,-19 6,-28 4,-9 9,-17 15,-23 6,-7 13,-12 21,-16 8,-4 17,-6 25,-6zm-4 5c-4,0 -7,2 -10,4 -5,4 -11,15 -17,32 -6,17 -9,32 -9,45 0,4 1,6 3,9 2,2 4,3 7,3 3,0 5,-1 7,-3 3,-2 7,-8 12,-17 5,-9 8,-19 11,-30 3,-11 5,-22 5,-31 0,-3 -1,-6 -3,-8 -2,-3 -4,-4 -6,-4z"/>
   <path id="7" class="fil140" d="M1822 1150l-28 98c10,-15 17,-24 21,-30 7,-7 12,-12 17,-14 5,-3 9,-4 14,-4 3,0 7,1 9,4 3,3 4,6 4,11 0,4 -1,9 -2,15l-14 46c-1,4 -2,7 -2,8 0,1 0,1 1,2 0,1 1,1 1,1 1,0 2,-1 3,-1 2,-2 5,-5 7,-9 1,-1 2,-3 4,-5l4 3c-6,10 -12,17 -18,21 -5,4 -11,6 -16,6 -4,0 -8,-1 -10,-4 -3,-2 -4,-5 -4,-8 0,-4 1,-8 2,-14l14 -46c1,-3 1,-6 1,-7 0,-1 0,-2 -1,-2 0,-1 -1,-1 -2,-1 -2,0 -6,2 -10,6 -10,9 -19,23 -29,42l-9 32 -27 0 35 -122c2,-6 2,-9 2,-12 0,-1 0,-3 -2,-4 -2,-1 -4,-2 -8,-2l0 -4 36 -6 7 0z"/>
   <path id="8" class="fil140" d="M1923 1150c4,0 8,1 11,4 3,4 5,7 5,12 0,4 -2,8 -5,11 -3,3 -7,5 -11,5 -5,0 -8,-2 -11,-5 -4,-3 -5,-7 -5,-11 0,-5 1,-8 5,-12 3,-3 6,-4 11,-4zm6 50l-22 77c-1,4 -2,7 -2,9 0,0 1,1 1,2 1,1 2,1 2,1 2,0 3,-1 4,-2 3,-2 7,-7 12,-14l4 2c-11,19 -23,29 -35,29 -5,0 -9,-2 -12,-4 -2,-3 -4,-6 -4,-10 0,-3 1,-7 2,-11l15 -52c2,-5 2,-8 2,-11 0,-2 0,-3 -2,-4 -1,-1 -3,-2 -5,-2 -1,0 -3,0 -4,0l1 -4 37 -6 6 0z"/>
   <path id="9" class="fil140" d="M2005 1150l-36 122c-2,7 -3,12 -3,14 0,1 0,1 1,2 0,1 1,1 2,1 1,0 2,-1 4,-1 3,-3 7,-8 11,-15l4 2c-6,11 -13,19 -20,24 -5,3 -9,5 -15,5 -4,0 -8,-2 -11,-4 -3,-3 -4,-6 -4,-10 0,-2 1,-7 2,-13l30 -100c1,-5 2,-9 2,-11 0,-1 0,-3 -2,-4 -2,-1 -5,-2 -9,-2l1 -4 36 -6 7 0z"/>
   <path id="10" class="fil140" d="M2067 1150l-36 122c-2,7 -3,12 -3,14 0,1 0,1 1,2 0,1 1,1 2,1 1,0 2,-1 3,-1 4,-3 8,-8 12,-15l4 2c-7,11 -13,19 -20,24 -5,3 -10,5 -15,5 -4,0 -8,-2 -11,-4 -3,-3 -4,-6 -4,-10 0,-2 1,-7 2,-13l30 -100c1,-5 2,-9 2,-11 0,-1 -1,-3 -2,-4 -2,-1 -5,-2 -10,-2l2 -4 36 -6 7 0z"/>
   <path id="11" class="fil140" d="M2172 1215l-13 51c-6,23 -11,41 -17,51 -6,11 -12,19 -20,24 -7,5 -16,8 -26,8 -6,0 -11,-2 -13,-4 -3,-2 -5,-5 -5,-8 0,-3 1,-6 4,-8 2,-2 5,-3 9,-3 4,0 6,1 8,2 1,2 2,4 2,6 0,3 0,5 -1,6 -1,1 -2,2 -2,2l1 1c0,0 1,0 1,0 2,0 4,-1 6,-2 4,-3 6,-7 8,-12 2,-4 4,-12 8,-27l22 -87 -15 0 3 -12c6,0 10,-1 12,-2 3,-2 5,-5 8,-10 8,-15 17,-25 25,-32 9,-6 19,-9 30,-9 7,0 12,1 15,4 3,2 5,6 5,10 0,4 -1,7 -3,9 -2,2 -5,3 -8,3 -3,0 -5,0 -7,-2 -2,-2 -3,-4 -3,-7 0,-2 0,-3 2,-5 1,-3 1,-4 1,-5 0,0 0,-1 0,-2 -1,0 -2,0 -3,0 -4,0 -8,2 -13,8 -7,8 -13,21 -18,40l16 0 -4 12 -15 0z"/>
   <path id="12" class="fil140" d="M2261 1200c6,0 11,1 16,4 5,2 9,6 12,11 2,4 3,10 3,15 0,12 -3,24 -9,36 -7,11 -16,21 -26,27 -11,7 -22,11 -33,11 -9,0 -17,-3 -23,-9 -5,-6 -8,-13 -8,-22 0,-10 2,-19 6,-28 5,-9 10,-17 16,-23 6,-7 13,-12 21,-16 8,-4 16,-6 25,-6zm-4 5c-4,0 -7,2 -10,4 -5,4 -11,15 -17,32 -6,17 -10,32 -10,45 0,4 1,6 3,9 2,2 5,3 8,3 2,0 5,-1 7,-3 3,-2 7,-8 12,-17 5,-9 8,-19 11,-30 3,-11 5,-22 5,-31 0,-3 -1,-6 -3,-8 -2,-3 -4,-4 -6,-4z"/>
   <path id="13" class="fil140" d="M2352 1200l-16 61c13,-30 23,-48 30,-55 4,-4 8,-6 13,-6 3,0 5,1 7,3 2,2 3,5 3,9 0,7 -2,13 -5,18 -3,3 -5,5 -8,5 -3,0 -5,-2 -6,-4 -2,-3 -3,-5 -3,-5 -1,0 -1,-1 -2,-1 -1,0 -2,1 -2,1 -2,1 -4,3 -7,6 -2,4 -5,9 -9,17 -4,8 -7,15 -9,20 -2,6 -5,16 -9,31l-26 0 18 -72c1,-5 2,-8 2,-10 0,-2 -1,-4 -1,-5 -1,-1 -2,-2 -3,-2 -1,-1 -4,-1 -7,-1l1 -3 32 -7 7 0z"/>
   <path id="14" class="fil140" d="M2500 1215l-13 51c-6,23 -12,41 -17,51 -6,11 -13,19 -20,24 -8,5 -16,8 -26,8 -6,0 -11,-2 -14,-4 -3,-2 -4,-5 -4,-8 0,-3 1,-6 3,-8 3,-2 6,-3 10,-3 3,0 6,1 7,2 2,2 3,4 3,6 0,3 -1,5 -2,6 -1,1 -1,2 -1,2l0 1c1,0 1,0 2,0 2,0 4,-1 5,-2 4,-3 7,-7 9,-12 1,-4 4,-12 7,-27l23 -87 -16 0 4 -12c6,0 9,-1 12,-2 2,-2 5,-5 8,-10 8,-15 16,-25 25,-32 9,-6 19,-9 30,-9 6,0 11,1 15,4 3,2 4,6 4,10 0,4 -1,7 -3,9 -2,2 -4,3 -8,3 -2,0 -5,0 -7,-2 -2,-2 -3,-4 -3,-7 0,-2 1,-3 2,-5 1,-3 2,-4 2,-5 0,0 0,-1 -1,-2 0,0 -1,0 -2,0 -4,0 -9,2 -13,8 -7,8 -13,21 -18,40l16 0 -4 12 -15 0z"/>
   <path id="15" class="fil140" d="M2550 1260c0,4 -1,8 -1,11 0,6 2,10 5,13 3,4 7,5 13,5 5,0 10,-1 15,-3 5,-3 11,-7 18,-13l3 3c-8,10 -16,17 -24,21 -8,4 -17,7 -26,7 -13,0 -21,-3 -26,-9 -4,-6 -7,-13 -7,-20 0,-12 4,-24 11,-36 7,-12 16,-21 28,-29 12,-7 24,-10 36,-10 6,0 11,1 14,4 3,3 4,7 4,11 0,5 -1,11 -4,16 -4,6 -10,12 -16,16 -6,4 -13,7 -21,9 -6,2 -13,3 -22,4zm1 -6c7,-1 12,-2 15,-4 4,-1 7,-4 11,-8 3,-3 6,-8 8,-13 3,-6 4,-11 4,-16 0,-2 -1,-3 -2,-4 -1,-2 -2,-2 -4,-2 -4,0 -7,2 -12,7 -8,9 -14,22 -20,40z"/>
   <path id="16" class="fil140" d="M2649 1260c0,4 -1,8 -1,11 0,6 2,10 5,13 3,4 7,5 13,5 5,0 10,-1 15,-3 5,-3 11,-7 18,-13l3 3c-8,10 -17,17 -24,21 -8,4 -17,7 -27,7 -12,0 -20,-3 -25,-9 -4,-6 -7,-13 -7,-20 0,-12 4,-24 11,-36 7,-12 16,-21 28,-29 12,-7 24,-10 36,-10 6,0 11,1 14,4 3,3 4,7 4,11 0,5 -1,11 -4,16 -4,6 -10,12 -16,16 -6,4 -14,7 -22,9 -5,2 -12,3 -21,4zm1 -6c7,-1 12,-2 15,-4 4,-1 7,-4 10,-8 4,-3 7,-8 9,-13 2,-6 4,-11 4,-16 0,-2 -1,-3 -2,-4 -1,-2 -3,-2 -4,-2 -4,0 -8,2 -12,7 -8,9 -14,22 -20,40z"/>
   <path id="17" class="fil140" d="M2784 1150l-36 122c-2,7 -3,12 -3,14 0,1 0,1 0,2 1,1 2,1 3,1 1,0 2,-1 3,-1 4,-3 8,-8 12,-15l4 2c-7,11 -14,19 -20,24 -5,3 -10,5 -15,5 -5,0 -8,-2 -11,-4 -3,-3 -5,-6 -5,-10 0,-2 1,-7 3,-13l29 -100c2,-5 3,-9 3,-11 0,-1 -1,-3 -2,-4 -2,-1 -6,-2 -10,-2l2 -4 36 -6 7 0z"/>
  </g>
 </g>
</svg>
